<?xml version="1.0" encoding="utf-8"?>
<!-- Generator: Adobe Illustrator 16.0.0, SVG Export Plug-In . SVG Version: 6.00 Build 0)  -->
<!DOCTYPE svg PUBLIC "-//W3C//DTD SVG 1.1//EN" "http://www.w3.org/Graphics/SVG/1.1/DTD/svg11.dtd">
<svg version="1.1" id="Layer_1" xmlns="http://www.w3.org/2000/svg" xmlns:xlink="http://www.w3.org/1999/xlink" x="0px" y="0px"
	 width="190px" height="27.781px" viewBox="0 0 190 27.781" enable-background="new 0 0 190 27.781" xml:space="preserve">
<g>
	<g>
		<path fill="#FFFFFF" d="M85.831,17.816c0.287-1.069-0.195-1.754-0.899-2.396c-1.754-1.604-3.917-2.363-6.172-2.847
			c-3.709-0.799-7.459-1.207-11.268-0.904c-2.285,0.18-4.577,0.258-6.866,0.379c-5.726,0.301-11.408,0.988-17.063,1.923
			c-1.239,0.205-2.5,0.34-3.756,0.377c-3.206,0.094-6.415,0.086-9.622,0.172c-1.486,0.041-2.986,0.104-4.45,0.34
			c-3.334,0.535-6.628,0.26-9.923-0.254c-1.144-0.178-2.223-0.562-3.204-1.182c-1.139-0.721-1.77-1.791-1.924-3.102
			c-0.123-1.039,0.689-1.637,1.299-2.309c0.153-0.17,0.313-0.34,0.494-0.477c2.535-1.938,5.263-2.674,8.338-1.361
			c0.604,0.258,0.861,0.689,0.974,1.285c0.21,1.117-0.187,1.723-1.278,2.002c-0.805,0.205-1.58,0.188-2.359-0.102
			c-0.425-0.158-0.857-0.305-1.299-0.4c-0.631-0.137-1.441,0.447-1.54,1.066c-0.079,0.496,0.33,1.172,0.836,1.375
			c0.212,0.086,0.423,0.172,0.636,0.254c2.033,0.773,4.072,0.465,6.079-0.063c1.396-0.367,2.367-1.346,3.052-2.6
			c0.107-0.197,0.196-0.432,0.203-0.65c0.058-1.688-0.383-3.164-1.84-4.188c-1.055-0.742-2.246-1.072-3.51-1.293
			c-3.323-0.584-6.322,0.641-9.359,1.615c-0.629,0.201-1.213,0.668-1.711,1.127C8.495,6.716,7.681,8.11,7.227,9.671
			c-0.323,1.109-0.383,2.277,0.167,3.359c1.416,2.782,3.52,4.772,6.607,5.587c1.219,0.32,2.449,0.6,3.661,0.943
			c0.901,0.254,1.815,0.362,2.716,0.151c1.136-0.264,2.271-0.215,3.416-0.226c3.438-0.026,6.871-0.141,10.283-0.602
			c0.908-0.123,1.825-0.176,2.734-0.287c2.951-0.361,5.885-0.881,8.873-0.867c0.338,0.002,0.672-0.145,1.012-0.188
			c3.75-0.475,7.391-1.525,11.146-2.012c3.293-0.426,6.605-0.684,9.891-1.178c0.783-0.117,1.602-0.018,2.217-0.018
			c2.979-0.295,5.652,0.445,8.344,0.974c1.764,0.346,3.029,1.551,4.186,2.85c0.147,0.166,0.283,0.385,0.322,0.6
			c0.16,0.896,0.306,1.799,0.398,2.707c0.02,0.176-0.176,0.451-0.348,0.555c-0.482,0.293-1.012,0.506-1.509,0.773
			c-0.597,0.322-1.195,0.646-1.755,1.023c-0.146,0.1-0.231,0.428-0.188,0.617c0.034,0.155,0.3,0.371,0.462,0.371
			c1.938-0.017,3.549-0.859,4.896-2.169c0.846-0.817,1.258-1.896,1.152-3.118C85.863,18.95,85.691,18.34,85.831,17.816z
			 M95.534,13.237c-0.667-0.229-1.396-0.113-1.955,0.354c-1.714,1.431-2.54,3.212-1.988,5.476c0.563,2.31,1.84,2.941,3.644,2.908
			c0.811,0.031,1.607-0.014,2.328-0.442c1.231-0.736,2.084-1.781,2.5-3.156c0.281-0.938,0.148-1.846-0.514-2.58
			C98.451,14.581,97.068,13.762,95.534,13.237z M183.956,9.671c-0.454-1.561-1.269-2.955-2.47-4.066
			c-0.498-0.459-1.082-0.926-1.711-1.127c-3.037-0.975-6.037-2.199-9.359-1.615c-1.264,0.221-2.455,0.551-3.51,1.293
			c-1.457,1.025-1.897,2.502-1.84,4.188c0.007,0.219,0.096,0.453,0.203,0.65c0.685,1.254,1.655,2.232,3.051,2.6
			c2.008,0.527,4.047,0.836,6.08,0.063c0.213-0.082,0.424-0.168,0.636-0.254c0.506-0.203,0.915-0.879,0.836-1.375
			c-0.099-0.619-0.909-1.203-1.54-1.066c-0.441,0.096-0.874,0.242-1.299,0.4c-0.779,0.289-1.555,0.307-2.359,0.102
			c-1.092-0.279-1.488-0.885-1.277-2.002c0.111-0.596,0.369-1.027,0.974-1.285c3.075-1.313,5.803-0.576,8.338,1.361
			c0.183,0.137,0.341,0.307,0.494,0.477c0.608,0.672,1.422,1.27,1.299,2.309c-0.153,1.311-0.785,2.381-1.924,3.102
			c-0.981,0.621-2.062,1.003-3.204,1.181c-3.295,0.515-6.589,0.789-9.923,0.254c-1.464-0.235-2.964-0.299-4.45-0.34
			c-3.207-0.086-6.416-0.078-9.622-0.171c-1.256-0.037-2.517-0.172-3.756-0.377c-5.655-0.935-11.338-1.623-17.063-1.923
			c-2.289-0.121-4.58-0.199-6.865-0.379c-3.809-0.303-7.559,0.105-11.269,0.904c-2.255,0.484-4.418,1.244-6.172,2.847
			c-0.704,0.643-1.187,1.326-0.899,2.396c0.141,0.522-0.031,1.133-0.08,1.703c-0.105,1.223,0.307,2.301,1.151,3.119
			c1.349,1.309,2.958,2.151,4.896,2.168c0.162,0,0.429-0.216,0.463-0.371c0.043-0.189-0.043-0.519-0.188-0.617
			c-0.561-0.379-1.158-0.701-1.756-1.023c-0.496-0.268-1.025-0.48-1.509-0.773c-0.172-0.104-0.367-0.379-0.349-0.555
			c0.094-0.908,0.238-1.811,0.398-2.707c0.039-0.215,0.176-0.434,0.322-0.6c1.156-1.299,2.422-2.504,4.186-2.85
			c2.691-0.527,5.365-1.269,8.344-0.974c0.615,0,1.435-0.1,2.218,0.018c3.284,0.495,6.598,0.752,9.891,1.178
			c3.757,0.486,7.396,1.537,11.146,2.012c0.341,0.043,0.675,0.189,1.013,0.188c2.987-0.014,5.922,0.507,8.873,0.867
			c0.909,0.111,1.826,0.164,2.733,0.287c3.412,0.461,6.847,0.574,10.283,0.603c1.146,0.01,2.28-0.039,3.416,0.225
			c0.9,0.211,1.814,0.103,2.717-0.151c1.211-0.345,2.441-0.623,3.66-0.943c3.088-0.814,5.191-2.805,6.607-5.587
			C184.338,11.948,184.279,10.78,183.956,9.671z"/>
	</g>
</g>
</svg>
