<?xml version="1.0" encoding="utf-8"?>
<!-- Generator: Adobe Illustrator 16.0.0, SVG Export Plug-In . SVG Version: 6.00 Build 0)  -->
<!DOCTYPE svg PUBLIC "-//W3C//DTD SVG 1.1//EN" "http://www.w3.org/Graphics/SVG/1.1/DTD/svg11.dtd">
<svg version="1.1" id="Layer_1" xmlns="http://www.w3.org/2000/svg" xmlns:xlink="http://www.w3.org/1999/xlink" x="0px" y="0px"
	 width="100px" height="100px" viewBox="0 0 100 100" enable-background="new 0 0 100 100" xml:space="preserve">
<g>
	<path fill-rule="evenodd" clip-rule="evenodd" fill="#F8BE39" d="M14.335,87.679l-0.037,0.018c0.269-0.02,0.465,0.13,0.678,0.266
		c0.915,0.574,1.862,0.635,2.831,0.135c0.159-0.081,0.317-0.161,0.474-0.246c0.628-0.346,1.182-0.788,1.711-1.266
		c0.396-0.357,0.792-0.717,1.211-1.045c0.285-0.223,0.523-0.478,0.744-0.757c0.462-0.587,0.938-1.162,1.412-1.738
		c0.249-0.302,0.524-0.583,0.757-0.896c0.468-0.625,0.922-1.263,1.367-1.906c1.233-1.783,2.517-3.531,3.85-5.239
		c1.181-1.515,2.339-3.047,3.616-4.483c0.636-0.717,1.222-1.474,1.91-2.148c1.32-1.294,2.588-2.642,3.881-3.964
		c0.198-0.203,0.4-0.406,0.625-0.58c0.537-0.418,0.986-0.92,1.441-1.42c0.407-0.446,0.832-0.877,1.259-1.303
		c0.097-0.097,0.229-0.194,0.355-0.213c0.299-0.049,0.524-0.194,0.726-0.404c0.293-0.313,0.598-0.609,0.889-0.923
		c0.893-0.963,1.712-1.998,2.684-2.89c0.105-0.096,0.189-0.213,0.28-0.321c0.627-0.732,1.297-1.415,2.065-2.001
		c0.253-0.193,0.486-0.415,0.713-0.64c0.655-0.653,1.295-1.321,1.955-1.968c0.481-0.472,0.979-0.929,1.484-1.377
		c0.505-0.449,1.031-0.874,1.541-1.317c0.186-0.16,0.472-0.271,0.513-0.521c0.047-0.283-0.306-0.346-0.44-0.541
		c-0.12-0.176-0.259-0.338-0.374-0.514c-0.03-0.05-0.027-0.144-0.001-0.199c0.025-0.051,0.119-0.121,0.151-0.109
		c0.46,0.194,0.774,0.611,1.252,0.792c0.236,0.091,0.451,0.158,0.711,0.161c0.788,0.008,1.55-0.18,2.327-0.244
		c0.819-0.066,1.603-0.304,2.398-0.493c0.24-0.058,0.478-0.138,0.707-0.234c0.786-0.332,1.561-0.7,2.268-1.177
		c0.968-0.656,1.908-1.359,2.83-2.084c0.53-0.415,0.995-0.91,1.494-1.364c0.367-0.335,0.728-0.684,1.118-0.991
		c0.563-0.442,1.044-0.966,1.525-1.488c0.242-0.26,0.462-0.541,0.714-0.789c0.97-0.95,1.764-2.046,2.6-3.105
		c0.353-0.447,0.7-0.894,1.091-1.311c0.705-0.753,1.394-1.519,1.981-2.373c0.442-0.643,0.922-1.263,1.415-1.868
		c0.654-0.805,1.21-1.667,1.679-2.59c0.406-0.794,0.852-1.561,1.381-2.279c0.401-0.546,0.728-1.138,1.023-1.745
		c0.095-0.191,0.183-0.386,0.286-0.571c0.517-0.933,1.038-1.861,1.555-2.795c0.138-0.248,0.271-0.5,0.389-0.76
		c0.41-0.906,0.807-1.82,1.218-2.729c0.16-0.355,0.311-0.712,0.355-1.11c0.023-0.209,0.097-0.416,0.177-0.611
		c0.351-0.859,0.559-1.762,0.786-2.656c0.151-0.595,0.112-1.199-0.034-1.795c-0.053-0.214-0.161-0.391-0.314-0.549
		C87.401,10.27,87,9.951,86.813,10.005c-0.658,0.196-1.27,0.486-1.706,1.031c-0.336,0.418-0.719,0.785-1.096,1.158
		c-0.656,0.649-1.313,1.302-2.042,1.873c-0.477,0.374-0.934,0.767-1.288,1.268c-0.101,0.145-0.222,0.285-0.36,0.39
		c-0.434,0.322-0.759,0.751-1.129,1.131c-0.421,0.432-0.842,0.865-1.284,1.274c-0.262,0.242-0.509,0.497-0.728,0.774
		c-0.507,0.646-1.033,1.27-1.728,1.728c-0.117,0.076-0.217,0.184-0.318,0.281c-0.717,0.692-1.432,1.384-2.146,2.075
		c-0.307,0.298-0.61,0.596-0.922,0.887c-0.547,0.511-1.153,0.967-1.634,1.529c-0.621,0.729-1.369,1.348-1.896,2.158
		c-0.076,0.115-0.197,0.203-0.305,0.295c-0.323,0.274-0.648,0.549-0.977,0.815c-0.351,0.284-0.593,0.701-0.884,1.059
		c-0.044,0.055-0.102,0.101-0.152,0.15c-0.434,0.417-0.874,0.819-1.266,1.286c-0.57,0.678-1.225,1.285-1.86,1.904
		c-0.257,0.251-0.499,0.502-0.684,0.812c-0.203,0.336-0.461,0.628-0.74,0.906c-0.83,0.83-1.669,1.651-2.461,2.516
		c-0.741,0.812-1.597,1.522-2.195,2.462c-0.057,0.089-0.125,0.175-0.208,0.243c-0.711,0.602-1.228,1.378-1.854,2.058
		c-0.794,0.862-1.522,1.784-2.293,2.668c-0.842,0.965-1.692,1.921-2.553,2.869c-0.645,0.712-1.273,1.439-1.969,2.099
		c-0.956,0.905-1.882,1.838-2.805,2.773c-1.099,1.112-2.227,2.194-3.306,3.328c-0.17,0.179-0.369,0.333-0.549,0.505
		c-0.384,0.37-0.771,0.738-1.144,1.118c-0.419,0.432-0.787,0.919-1.338,1.205c-0.093,0.049-0.158,0.143-0.236,0.215
		c-0.473,0.431-0.955,0.853-1.419,1.294c-1.287,1.23-2.649,2.365-4.096,3.408c-0.92,0.663-1.795,1.397-2.555,2.255
		c-0.188,0.212-0.409,0.396-0.625,0.58c-1.378,1.179-2.747,2.367-4.001,3.68c-0.073,0.077-0.155,0.146-0.243,0.205
		c-0.382,0.259-0.757,0.531-1.153,0.765c-1.17,0.688-2,1.746-3.037,2.616c-0.108,0.092-0.217,0.184-0.337,0.257
		c-1.189,0.73-2.23,1.644-3.234,2.601c-0.491,0.465-0.977,0.934-1.442,1.424c-0.661,0.694-1.347,1.367-1.858,2.192
		c-0.186,0.3-0.43,0.567-0.676,0.823c-0.578,0.595-1.026,1.269-1.343,2.034c-0.08,0.196-0.18,0.386-0.277,0.575
		c-0.427,0.819-0.513,1.694-0.396,2.59c0.104,0.802,0.505,1.48,1.061,2.051c0.862,0.887,1.893,1.494,3.111,1.764
		c0.251,0.056,0.495,0.05,0.737-0.02c0.827-0.236,1.618-0.556,2.311-1.072c0.741-0.555,1.491-1.091,2.178-1.718
		c0.422-0.387,0.822-0.779,1.146-1.253c0.138-0.203,0.325-0.372,0.487-0.561c0.14-0.16,0.281-0.318,0.406-0.49
		c0.728-1.009,1.453-2.019,2.268-2.962c0.395-0.456,0.741-0.956,1.088-1.449c0.571-0.814,1.123-1.641,1.763-2.406
		c0.387-0.462,0.747-0.949,1.085-1.449c0.88-1.296,1.813-2.547,2.81-3.753c0.861-1.041,1.698-2.1,2.563-3.137
		c0.796-0.956,1.581-1.92,2.47-2.794c0.226-0.224,0.404-0.495,0.617-0.735c0.204-0.229,0.241-0.505,0.245-0.79
		c0.091,0.032,0.096,0.05,0.017,0.056c0.009-0.024,0.017-0.047,0.026-0.073c-0.036,0.063-0.059,0.134-0.105,0.183
		c-0.912,0.896-1.783,1.83-2.614,2.802c-1.29,1.511-2.677,2.938-3.885,4.521c-0.042,0.056-0.091,0.108-0.136,0.163
		c-0.56,0.688-1.126,1.371-1.676,2.069c-0.988,1.255-1.9,2.567-2.809,3.884c-0.22,0.319-0.435,0.65-0.687,0.947
		c-1.035,1.219-1.863,2.594-2.886,3.821c-0.548,0.928-1.313,1.674-2.038,2.453c-0.17,0.181-0.363,0.339-0.554,0.497
		c-0.467,0.384-0.957,0.739-1.4,1.147c-0.706,0.647-1.564,0.976-2.464,1.19c-0.484,0.117-1.009,0.051-1.462-0.166
		c-0.41-0.196-0.781-0.481-1.155-0.747C14.447,88.021,14.321,87.882,14.335,87.679z"/>
	<path fill="#F8BE39" d="M38.651,26.121c-0.795-0.762-1.601-1.514-2.381-2.291c-0.805-0.801-1.528-1.685-2.4-2.42
		c-0.081-0.068-0.148-0.153-0.223-0.229c-0.57-0.585-1.133-1.177-1.713-1.754c-0.705-0.701-1.402-1.416-2.147-2.076
		c-0.692-0.612-1.345-1.266-2.035-1.877c-0.772-0.682-1.589-1.313-2.388-1.966c-0.164-0.136-0.334-0.267-0.512-0.385
		c-0.474-0.314-0.951-0.621-1.433-0.927c-0.087-0.056-0.188-0.115-0.286-0.126c-0.098-0.01-0.229,0.012-0.293,0.074
		c-0.313,0.297-0.332,0.661-0.065,0.932c1.146,1.165,2.292,2.332,3.441,3.492c0.877,0.884,1.76,1.762,2.64,2.642
		c-0.004,0.004-0.008,0.007-0.011,0.011c0.074,0.074,0.147,0.154,0.228,0.226c1.311,1.198,2.647,2.37,3.846,3.688
		c0.094,0.104,0.217,0.183,0.322,0.277c0.159,0.143,0.33,0.276,0.467,0.437c0.695,0.807,1.438,1.572,2.066,2.44
		c0.366,0.507,0.581,1.054,0.744,1.635c0.033,0.124,0.023,0.3-0.05,0.409c-0.624,0.949-1.714,0.469-2.089,0.192
		c-0.485-0.359-0.977-0.717-1.412-1.134c-1.338-1.276-2.643-2.587-3.971-3.873c-0.357-0.346-0.754-0.649-1.125-0.979
		c-0.426-0.378-0.867-0.743-1.259-1.15c-0.987-1.024-1.949-2.071-2.922-3.108c-0.121-0.13-0.235-0.273-0.379-0.375
		c-0.412-0.29-0.725-0.677-1.076-1.029c-0.552-0.556-1.108-1.104-1.666-1.652c-0.074-0.073-0.151-0.163-0.245-0.193
		c-0.087-0.027-0.214-0.017-0.295,0.028c-0.174,0.095-0.656,0.726-0.596,0.881c0.108,0.269,0.267,0.501,0.466,0.709
		c0.464,0.491,0.925,0.984,1.395,1.471c0.863,0.896,1.759,1.766,2.591,2.69c0.762,0.846,1.548,1.669,2.34,2.484
		c1.386,1.43,2.841,2.794,4.068,4.368c0.043,0.058,0.095,0.106,0.145,0.158c0.44,0.466,0.817,0.979,1.207,1.486
		c0.404,0.524,0.744,0.995,0.947,1.603c0.137,0.409,0.058,0.769-0.171,1.112c-0.167,0.255-0.405,0.394-0.708,0.417
		c-0.598,0.047-1.122-0.123-1.579-0.512c-0.406-0.346-0.828-0.672-1.224-1.031c-0.474-0.43-0.945-0.865-1.384-1.33
		c-0.854-0.903-1.68-1.834-2.522-2.749c-0.241-0.263-0.482-0.527-0.751-0.757c-0.844-0.717-1.573-1.543-2.329-2.344
		c-0.61-0.646-1.248-1.266-1.874-1.897c-0.301-0.302-0.605-0.602-0.905-0.904c-0.474-0.48-0.947-0.964-1.42-1.446
		c-0.356-0.362-0.805-0.58-1.267-0.769c-0.064-0.026-0.139-0.028-0.21-0.038c-0.242-0.033-0.574,0.36-0.509,0.602
		c0.068,0.247,0.183,0.468,0.354,0.649c0.363,0.39,0.704,0.799,1.115,1.146c0.627,0.528,1.169,1.137,1.671,1.789
		c0.563,0.729,1.131,1.459,1.763,2.139c0.773,0.833,1.623,1.598,2.314,2.507c0.084,0.112,0.202,0.2,0.317,0.283
		c0.526,0.371,0.962,0.843,1.413,1.297c0.902,0.907,1.812,1.808,2.716,2.714c0.227,0.226,0.444,0.46,0.665,0.691
		c0.426,0.445,0.768,0.902,1.05,1.435c0.033,0.062,0.045,0.136,0.051,0.206c0.026,0.316,0.054,0.635,0.065,0.952
		c0.006,0.145-0.044,0.277-0.161,0.379c-0.245,0.215-0.499,0.363-0.851,0.378c-0.598,0.024-1.118-0.118-1.582-0.499
		c-0.411-0.34-0.855-0.638-1.254-0.992c-1.223-1.088-2.368-2.257-3.498-3.44c-0.538-0.565-1.084-1.125-1.579-1.734
		c-0.288-0.357-0.636-0.668-0.97-0.986c-0.36-0.343-0.756-0.648-1.102-1.004c-1.392-1.426-2.738-2.893-4.039-4.4
		c-0.279-0.322-0.574-0.633-0.867-0.941c-0.07-0.074-0.163-0.137-0.258-0.179c-0.055-0.026-0.141-0.018-0.199,0.007
		c-0.279,0.122-0.375,0.347-0.243,0.599c0.396,0.757,0.84,1.486,1.353,2.167c0.793,1.052,1.626,2.069,2.433,3.111
		c0.632,0.814,1.378,1.526,2.048,2.311c0.367,0.432,0.782,0.824,1.171,1.239c0.389,0.416,0.774,0.835,1.149,1.263
		c0.896,1.01,1.761,2.049,2.687,3.033c0.634,0.675,1.209,1.396,1.804,2.102c0.711,0.848,1.524,1.589,2.312,2.358
		c0.102,0.099,0.222,0.177,0.338,0.26c1.011,0.726,2.021,1.452,3.035,2.171c0.2,0.144,0.419,0.267,0.637,0.388
		c0.568,0.312,1.182,0.475,1.824,0.557c1.094,0.139,2.189,0.268,3.252,0.578c0.204,0.058,0.419,0.077,0.63,0.104
		c0.459,0.061,0.918,0.12,1.377,0.171c0.356,0.038,0.696,0.125,1.035,0.242c1.216,0.424,2.358,0.988,3.432,1.695
		c0.212,0.139,0.373,0.316,0.552,0.484c0.595,0.561,1.196,1.117,1.848,1.61c0.511,0.387,1.018,0.776,1.482,1.216
		c0.516,0.486,1.005,1.005,1.516,1.497c1.386,1.329,2.789,2.64,4.163,3.98c1.12,1.094,2.195,2.229,3.164,3.463
		c0.307,0.39,0.589,0.801,0.893,1.194c0.631,0.814,1.271,1.623,1.901,2.439c0.586,0.757,1.14,1.544,1.754,2.279
		c0.82,0.983,1.565,2.021,2.32,3.054c0.253,0.343,0.495,0.693,0.752,1.033c0.642,0.853,1.29,1.699,1.931,2.551
		c0.214,0.284,0.402,0.588,0.623,0.864c0.71,0.89,1.436,1.766,2.141,2.658c0.815,1.033,1.619,2.074,2.42,3.118
		c0.736,0.962,1.484,1.908,2.367,2.741c0.233,0.219,0.461,0.451,0.646,0.71c0.564,0.779,1.249,1.457,1.868,2.191
		c0.342,0.406,0.71,0.795,1.095,1.161c0.438,0.415,0.914,0.792,1.361,1.196c0.769,0.69,1.612,1.286,2.482,1.835
		c0.668,0.424,1.399,0.698,2.219,0.641c0.176-0.011,0.354,0.014,0.531,0.005c0.178-0.009,0.355-0.024,0.526-0.065
		c0.661-0.163,1.243-0.521,1.861-0.787c0.064-0.027,0.122-0.074,0.173-0.125c0.324-0.326,0.65-0.654,0.971-0.987
		c0.178-0.186,0.288-0.419,0.309-0.669c0.046-0.571,0.202-1.118,0.343-1.668c0.081-0.317,0.088-0.641,0.028-0.955
		c-0.258-1.357-0.797-2.578-1.793-3.563c-0.48-0.476-0.97-0.94-1.468-1.399c-0.208-0.188-0.445-0.351-0.674-0.519
		c-0.069-0.051-0.143-0.029-0.183,0.043c-0.016,0.024-0.02,0.075-0.006,0.091c0.231,0.267,0.472,0.527,0.697,0.798
		c0.751,0.901,1.495,1.81,2.248,2.709c0.452,0.541,0.668,1.172,0.708,1.86c0.023,0.39,0.009,0.781-0.006,1.171
		c-0.04,1.103-0.627,1.958-1.641,2.409c-0.03,0.011-0.069,0.013-0.103,0.011c-0.034-0.005-0.075-0.011-0.1-0.035
		c-0.013-0.012-0.009-0.063,0.006-0.085c0.191-0.255,0.373-0.518,0.581-0.757c0.494-0.565,0.681-1.228,0.685-1.967
		c0.002-0.558-0.133-1.052-0.498-1.479c-0.254-0.299-0.445-0.639-0.655-0.967c-0.572-0.901-1.153-1.795-1.912-2.559
		c-1.104-1.109-2.222-2.202-3.437-3.189c-0.332-0.271-0.665-0.535-0.996-0.802c-0.747-0.604-1.518-1.183-2.232-1.82
		c-0.851-0.758-1.741-1.465-2.643-2.161c-0.617-0.478-1.252-0.939-1.848-1.444c-0.844-0.711-1.714-1.386-2.604-2.033
		c-1.034-0.751-2.118-1.432-3.082-2.281c-0.452-0.4-0.942-0.759-1.418-1.13c-0.698-0.549-1.416-1.076-2.097-1.646
		c-1.146-0.957-2.279-1.93-3.397-2.919c-0.368-0.326-0.674-0.724-1-1.097c-0.03-0.033,0.005-0.129,0.023-0.193
		c0.008-0.029,0.055-0.045,0.075-0.072c0.143-0.204,0.143-0.312-0.014-0.446c-1.127-0.979-2.141-2.085-3.326-3.001
		c-0.112-0.086-0.215-0.187-0.313-0.288c-0.928-0.982-1.973-1.851-2.833-2.898c-0.089-0.109-0.192-0.211-0.306-0.296
		c-0.572-0.43-1.038-0.974-1.578-1.434c-1.065-0.91-1.928-1.998-2.729-3.128c-0.866-1.218-1.619-2.512-2.218-3.885
		c-0.354-0.813-0.689-1.637-0.783-2.538c-0.052-0.491-0.164-0.98-0.292-1.458c-0.146-0.552-0.262-1.104-0.298-1.675
		c-0.022-0.354-0.07-0.709-0.136-1.058c-0.106-0.561-0.167-1.122-0.16-1.694c0.004-0.279-0.027-0.576-0.114-0.841
		c-0.517-1.567-1.268-3.014-2.366-4.262c-0.705-0.799-1.522-1.494-2.194-2.326C38.87,26.308,38.754,26.222,38.651,26.121z
		 M42.66,34.936c0.067,0.361,0.025,0.717-0.079,1.071c-0.114,0.377-0.188,0.767-0.323,1.135c-0.347,0.957-0.749,1.894-1.37,2.712
		c-0.1,0.131-0.214,0.249-0.362,0.423c-0.138,0.096-0.321,0.234-0.513,0.357c-0.359,0.229-0.727,0.448-1.089,0.673
		c-0.67,0.419-1.395,0.729-2.118,1.042c-0.266,0.115-1.321,0.268-1.645,0.25c-0.063-0.002-0.125-0.036-0.185-0.061
		c-0.173-0.071-0.229-0.38-0.082-0.498c0.099-0.08,0.215-0.161,0.334-0.187c0.353-0.076,0.71-0.133,1.065-0.182
		c0.466-0.064,0.886-0.239,1.281-0.479c0.447-0.273,0.887-0.561,1.328-0.845c0.247-0.16,0.473-0.367,0.739-0.479
		c0.354-0.149,0.604-0.395,0.801-0.698c0.249-0.385,0.522-0.76,0.61-1.228c0.025-0.126,0.072-0.254,0.134-0.369
		c0.484-0.912,0.702-1.897,0.839-2.912c0.009-0.071,0.137-0.188,0.209-0.173c0.091,0.019,0.209,0.036,0.262,0.1
		C42.579,34.684,42.639,34.813,42.66,34.936z M81.392,75.08c0.23,0.272,0.621,0.496,0.768,0.922c0.02,0.056-0.014,0.132-0.022,0.199
		c-0.034-0.009-0.075-0.009-0.101-0.029c-0.482-0.364-0.968-0.721-1.439-1.094c-0.945-0.75-1.887-1.507-2.824-2.265
		c-0.304-0.246-0.59-0.513-0.893-0.76c-1.21-0.987-2.423-1.972-3.637-2.957c-0.082-0.067-0.178-0.12-0.255-0.192
		c-1.543-1.428-3.302-2.572-4.979-3.822c-0.228-0.17-0.483-0.313-0.677-0.516c-0.495-0.52-1.088-0.919-1.663-1.327
		c-0.782-0.558-1.504-1.188-2.274-1.757c-0.828-0.609-1.625-1.264-2.423-1.913c-0.385-0.314-0.74-0.663-1.103-1.002
		c-0.031-0.027-0.021-0.1-0.028-0.15c0.033,0,0.075-0.014,0.101,0.001c0.93,0.524,1.738,1.227,2.639,1.796
		c0.029,0.017,0.057,0.04,0.084,0.063c0.865,0.734,1.739,1.461,2.593,2.209c0.35,0.306,0.711,0.581,1.091,0.846
		c1.167,0.807,2.311,1.648,3.46,2.482c1.266,0.917,2.42,1.973,3.687,2.889c0.83,0.603,1.583,1.314,2.403,1.933
		c0.628,0.471,1.216,0.978,1.778,1.521c0.076,0.073,0.156,0.156,0.252,0.191c0.439,0.173,0.773,0.499,1.153,0.76
		C79.903,73.67,80.665,74.306,81.392,75.08z"/>
</g>
</svg>
